<svg id="Layer_1" xmlns="http://www.w3.org/2000/svg" viewBox="0 0 64 64"><path d="M47.61,38.43c-.46-.93-1.4-1.51-2.43-1.51h-2.37c-.83,0-1.5,.67-1.5,1.5h0c0,.83,.67,1.5,1.5,1.5h2.2l6.43,12.96H12.56l6.43-12.96h1.83c.83,0,1.5-.67,1.5-1.5h0c0-.83-.67-1.5-1.5-1.5h-2c-1.04,0-1.97,.58-2.43,1.51l-6.71,13.52c-.42,.85-.38,1.84,.12,2.64,.5,.81,1.36,1.29,2.31,1.29H51.89c.95,0,1.81-.48,2.31-1.29s.55-1.79,.12-2.64l-6.72-13.52Z"/><path d="M30.72,47.9c.27,.45,.76,.72,1.28,.72s1.01-.27,1.28-.72c.76-1.26,1.86-2.91,3.12-4.81,1.06-1.6,2.08-3.15,3.05-4.66,4.16-6.49,7.23-12.03,7.23-15.62,0-8.1-6.59-14.69-14.69-14.69s-14.69,6.59-14.69,14.69c0,3.6,3.07,9.13,7.23,15.62,.97,1.5,1.99,3.06,3.05,4.65,1.27,1.91,2.36,3.55,3.12,4.82Zm-10.4-25.09c0-6.44,5.24-11.69,11.69-11.69s11.69,5.24,11.69,11.69c0,3.89-5.89,12.75-9.78,18.62-.69,1.04-1.33,2.01-1.9,2.89-.57-.88-1.21-1.85-1.91-2.89-3.89-5.87-9.78-14.73-9.78-18.61Z"/><path d="M38.7,21.83c0-3.69-3-6.7-6.7-6.7s-6.7,3-6.7,6.7,3,6.7,6.7,6.7,6.7-3,6.7-6.7Zm-10.39,0c0-2.04,1.66-3.7,3.7-3.7s3.7,1.66,3.7,3.7-1.66,3.7-3.7,3.7-3.7-1.66-3.7-3.7Z"/></svg>