<svg id="Layer_1" xmlns="http://www.w3.org/2000/svg" viewBox="0 0 64 64"><path d="M10.92,15.65h1.92c.17,0,.31,.12,.33,.29l.28,1.89c0,.07,0,.14,0,.21l2.99,19.5c.46,3.03,3.03,5.23,6.09,5.23h21.72c3.07,0,5.63-2.2,6.1-5.23l2.67-17.42c.15-.95-.13-1.92-.76-2.65-.63-.73-1.54-1.15-2.5-1.15H16.27l-.12-.81c-.24-1.63-1.66-2.85-3.3-2.85h-1.92c-.83,0-1.5,.67-1.5,1.5s.67,1.5,1.5,1.5Zm38.85,3.66c.11,0,.19,.06,.23,.11,.04,.05,.09,.13,.07,.24l-2.67,17.42c-.24,1.56-1.56,2.69-3.13,2.69H22.55c-1.58,0-2.89-1.13-3.13-2.69l-2.65-17.28s0-.05,0-.08l-.06-.41H49.77Z"/><path d="M28.94,36.87h9.16c.83,0,1.5-.67,1.5-1.5s-.67-1.5-1.5-1.5h-9.16c-.83,0-1.5,.67-1.5,1.5s.67,1.5,1.5,1.5Z"/><path d="M19.2,46.87c0,1.63,1.33,2.96,2.96,2.96s2.96-1.33,2.96-2.96-1.33-2.96-2.96-2.96-2.96,1.33-2.96,2.96Z"/><path d="M47.62,46.87c0-1.63-1.33-2.96-2.96-2.96s-2.96,1.33-2.96,2.96,1.33,2.96,2.96,2.96,2.96-1.33,2.96-2.96Z"/></svg>