<svg id="Layer_1" xmlns="http://www.w3.org/2000/svg" viewBox="0 0 64 64"><path d="M11.17,50.32c0,3.42,2.79,6.21,6.21,6.21h29.13c3.42,0,6.21-2.79,6.21-6.21V17.57c0-3.42-2.79-6.21-6.21-6.21h-4.66v-.29c0-1.44-1.17-2.61-2.61-2.61h-14.48c-1.44,0-2.61,1.17-2.61,2.61v.29h-4.78c-3.42,0-6.21,2.79-6.21,6.21V50.32ZM25.15,11.46h13.7v3.67h-13.7v-3.67Zm-10.99,6.11c0-1.77,1.44-3.21,3.21-3.21h4.78v1.16c0,1.44,1.17,2.61,2.61,2.61h14.48c1.44,0,2.61-1.17,2.61-2.61v-1.16h4.66c1.77,0,3.21,1.44,3.21,3.21V50.32c0,1.77-1.44,3.21-3.21,3.21H17.38c-1.77,0-3.21-1.44-3.21-3.21V17.57Z"/><path d="M19.15,26.86h2.97c.83,0,1.5-.67,1.5-1.5s-.67-1.5-1.5-1.5h-2.97c-.83,0-1.5,.67-1.5,1.5s.67,1.5,1.5,1.5Z"/><path d="M27.44,26.86h17.3c.83,0,1.5-.67,1.5-1.5s-.67-1.5-1.5-1.5H27.44c-.83,0-1.5,.67-1.5,1.5s.67,1.5,1.5,1.5Z"/><path d="M19.15,36.46h2.97c.83,0,1.5-.67,1.5-1.5s-.67-1.5-1.5-1.5h-2.97c-.83,0-1.5,.67-1.5,1.5s.67,1.5,1.5,1.5Z"/><path d="M27.44,36.46h17.3c.83,0,1.5-.67,1.5-1.5s-.67-1.5-1.5-1.5H27.44c-.83,0-1.5,.67-1.5,1.5s.67,1.5,1.5,1.5Z"/><path d="M19.15,46.05h2.97c.83,0,1.5-.67,1.5-1.5s-.67-1.5-1.5-1.5h-2.97c-.83,0-1.5,.67-1.5,1.5s.67,1.5,1.5,1.5Z"/><path d="M27.44,46.05h17.3c.83,0,1.5-.67,1.5-1.5s-.67-1.5-1.5-1.5H27.44c-.83,0-1.5,.67-1.5,1.5s.67,1.5,1.5,1.5Z"/></svg>