<svg id="Layer_1" xmlns="http://www.w3.org/2000/svg" viewBox="0 0 64 64"><path d="M52.29,16.08s-.05-.04-.08-.06c-1.13-.84-2.52-1.34-4.04-1.34H15.82c-3.75,0-6.8,3.05-6.8,6.8v21.55c0,1.94,.82,3.69,2.13,4.93,0,0,0,0,0,0,.01,.01,.03,.02,.04,.04,1.22,1.13,2.84,1.83,4.63,1.83H48.18c3.75,0,6.8-3.05,6.8-6.8V21.49c0-2.21-1.06-4.16-2.69-5.41Zm-36.47,1.6H48.18c.13,0,.25,.03,.37,.04l-16.6,14.6L15.06,17.76c.25-.05,.5-.08,.76-.08Zm36.16,25.36c0,.69-.2,1.34-.53,1.9l-10.16-10c-.59-.58-1.54-.57-2.12,.02-.58,.59-.57,1.54,.02,2.12l9.82,9.67c-.27,.06-.55,.1-.84,.1H15.82c-.39,0-.75-.08-1.11-.18l10.07-9.57c.6-.57,.62-1.52,.05-2.12-.57-.6-1.52-.62-2.12-.05l-10.3,9.79c-.25-.5-.4-1.06-.4-1.66V21.49c0-.7,.21-1.36,.54-1.92l17.43,15.03c.58,.5,1.29,.75,2,.75s1.44-.25,2.03-.76l17.27-15.27c.43,.62,.69,1.37,.69,2.18v21.55Z"/></svg>