<svg id="Layer_1" xmlns="http://www.w3.org/2000/svg" viewBox="0 0 64 64"><path d="M59.19,37.08c0-4.32-5.05-6.4-8.61-6.83-.3-2.99-1.66-5.96-4.1-9.26,.19-.12,.35-.26,.47-.39,.88-.93,.94-2.26,.87-3.45,.01-.76-.25-1.43-.77-1.94-.87-.85-2.2-1.01-3.55-.99v-4.56h0c.02-1.55-.71-2.87-1.99-3.62-1.4-.82-3.22-.82-4.62,0-1.29,.75-2.02,2.08-2,3.6-.02,1.56,.7,2.89,1.99,3.64,.7,.41,1.51,.62,2.31,.62,.44,0,.88-.07,1.31-.19v.61s-.08-.02-.12-.02c-1.31-.05-2.48,.56-3.15,1.65-.12,.2-.22,.42-.3,.64h-3.74c-.83,0-1.5,.67-1.5,1.5s.67,1.5,1.5,1.5h3.9s.04,.09,.07,.14c.41,.73,1.04,1.25,1.81,1.51,2.07,8.43,2.29,13.96,.67,16.44-.47,.73-1.09,1.14-1.93,1.29-2.52,.24-3.06-.2-3.14-.29-.37-.41-.03-2.21,.25-3.65,.08-.42,.16-.85,.25-1.32,.08-.48,.05-.97-.07-1.43,.07-.24,.09-.5,.02-.76-1.57-6.67-5.02-6.7-8.35-6.72-1.35,0-2.74-.02-4.23-.42-1.53-.73-3.71-.69-5.65-.65-.57,.01-1.09,.02-1.53,0-1.85-.05-3.44,.58-4.58,1.85-1.17,1.3-1.84,3.25-1.91,5.46-.77,.53-1.48,1.2-2.08,2.01-1.56,2.09-2.2,4.66-1.72,6.88,.13,.58,.58,1.03,1.16,1.15,.25,.05,.6,.08,1.13,.09-.13,1.74,.22,3.52,1.09,5.01,1.35,2.31,3.73,3.63,6.55,3.63,.03,0,.07,0,.1,0,2.9,.01,5.28-1.29,6.65-3.63,.56-.96,.91-2.05,1.06-3.16,.98,1.4,2.35,2.96,4.42,2.96,.09,0,.19,0,.28,0h14.08s.07,0,.1,0c.9,0,1.76-.26,2.54-.72,.13,.32,.29,.64,.46,.94,1.35,2.31,3.73,3.63,6.55,3.63h.2c2.82,0,5.2-1.32,6.55-3.63,1.34-2.29,1.49-5.28,.46-7.73,.5-.24,.85-.75,.85-1.35Zm-8.67-3.81c1.9,.27,4.04,1.1,5.06,2.31h-5.55c.23-.78,.39-1.55,.49-2.31Zm-10.53-22.59c-.46,.27-1.14,.27-1.6,0-.35-.21-.51-.53-.51-1.05,0-.48,.15-.8,.51-1.01,.23-.14,.52-.2,.8-.2s.57,.07,.8,.2c.35,.21,.51,.53,.51,1.01v.04c0,.48-.15,.8-.51,1.01ZM12.91,27.58c.55-.61,1.28-.89,2.24-.86,.47,.02,1.06,0,1.7,0,1.39-.03,3.5-.07,4.35,.38,.09,.05,.19,.09,.29,.12,1.93,.55,3.65,.56,5.16,.57,2.38,.02,3.69,.03,4.64,1.95-6.23,0-16.55,0-19.17,.04-.07,0-.14,.02-.21,.03,.18-.93,.52-1.71,.99-2.24Zm6.14,17.07c-.57,.98-1.72,2.14-3.95,2.14-.03,0-.06,0-.09,0h-.04c-2.27,.04-3.46-1.15-4.04-2.14-.6-1.03-.83-2.32-.68-3.54,.19,0,.37,0,.58-.01,2.13-.06,6.33-.17,8.9,.01,.15,1.22-.08,2.51-.68,3.54Zm24.8-3.46c-.04,.05-.07,.11-.1,.17-.19,.38-.91,1.58-2.24,1.59h-14.17s-.08,0-.12,0c-.9,.1-1.65-1.01-2.58-2.43-.2-.31-.4-.61-.59-.87-.85-1.52-3.53-1.81-13.3-1.55-1.02,.03-2.13,.06-2.93,.06,.06-1.1,.51-2.3,1.27-3.32,.91-1.22,2.1-1.97,3.16-2.05,2.57-.03,13.31-.04,19.48-.04,.15,0,.24,.07,.29,.14,.05,.06,.11,.17,.09,.31-.08,.44-.16,.86-.24,1.26-.49,2.53-.91,4.72,.48,6.24,1.05,1.15,2.81,1.53,5.71,1.25,.04,0,.07,0,.11-.01,1.7-.29,3.04-1.17,3.99-2.62,2.86-4.36,1.19-12.93-.31-19l-.18-.74c-.16-.68-.76-1.16-1.46-1.16h0c-.32,0-.39-.12-.42-.18-.12-.21-.11-.53,.02-.75,.06-.1,.15-.19,.39-.21,.54,.09,1.19,.04,2,0,.65-.04,2.08-.13,2.65,.03,.04,.62,0,.95-.03,1.11-.71,.05-1.36,.46-1.69,1.09-.36,.68-.32,1.5,.11,2.13,.02,.03,.04,.06,.07,.09,5.6,7.1,5.74,11.82,.56,19.45Zm11.44,3.46c-.57,.98-1.72,2.14-3.95,2.14-.03,0-.06,0-.09,0h-.04c-2.24,.04-3.46-1.15-4.04-2.14-.36-.61-.58-1.31-.67-2.03,.94-1.41,1.72-2.75,2.34-4.04h6.16c.11,.14,.2,.28,.28,.42,.97,1.66,.97,3.98,0,5.64Z"/></svg>