<svg id="Layer_1" xmlns="http://www.w3.org/2000/svg" viewBox="0 0 64 64"><path d="M26.06,14.73c-6.68,2.48-11.26,8.96-11.26,16.13v6.74c-1.84,1.05-3.02,3.01-3.02,5.19v2.51c0,.83,.67,1.5,1.5,1.5h11.08c.43,3.84,3.69,6.84,7.64,6.84s7.22-3,7.64-6.84h11.07c.83,0,1.5-.67,1.5-1.5v-2.51c0-2.17-1.18-4.14-3.02-5.19v-6.74c0-7.16-4.58-13.65-11.26-16.13-.44-2.48-2.61-4.37-5.21-4.37h-1.44c-2.6,0-4.77,1.89-5.21,4.37Zm5.94,35.91c-2.29,0-4.2-1.66-4.61-3.84h9.21c-.4,2.18-2.31,3.84-4.61,3.84Zm-3-34.88c0-.05,0-.1-.01-.16,.03-1.23,1.05-2.23,2.29-2.23h1.44c1.25,0,2.26,1,2.29,2.23,0,.05-.01,.12-.01,.16-.04,.69,.4,1.31,1.07,1.51,5.96,1.8,10.13,7.39,10.13,13.59v7.7c0,.64,.41,1.21,1.01,1.42,1.2,.41,2.01,1.54,2.01,2.81v1.01H14.78v-1.01c0-1.27,.81-2.4,2.01-2.81,.61-.21,1.01-.78,1.01-1.42v-7.7c0-6.21,4.17-11.8,10.13-13.59,.66-.2,1.1-.82,1.07-1.51Z"/></svg>