<svg id="Layer_1" xmlns="http://www.w3.org/2000/svg" viewBox="0 0 64 64"><path d="M52.54,25.83h-1.37c-.33-1.04-.75-2.05-1.25-3.02l.97-.97c1.68-1.68,1.68-4.42,0-6.11l-2.62-2.62c-1.69-1.68-4.43-1.68-6.11,0l-.97,.97c-.97-.5-1.98-.92-3.02-1.25v-1.36c0-2.38-1.94-4.32-4.32-4.32h-3.7c-2.38,0-4.32,1.94-4.32,4.32v1.36c-1.04,.33-2.05,.75-3.02,1.25l-.97-.97c-1.68-1.68-4.43-1.68-6.11,0l-2.62,2.62c-1.68,1.68-1.68,4.42,0,6.11l.97,.97c-.5,.97-.92,1.98-1.25,3.02h-1.36c-2.38,0-4.32,1.94-4.32,4.32v3.7c0,2.38,1.94,4.32,4.32,4.32h1.37c.33,1.04,.75,2.05,1.25,3.02l-.97,.97c-1.68,1.68-1.68,4.42,0,6.11l2.62,2.62c1.68,1.68,4.43,1.68,6.11,0l.97-.97c.97,.5,1.98,.92,3.02,1.25v1.36c0,2.38,1.94,4.32,4.32,4.32h3.7c2.38,0,4.32-1.94,4.32-4.32v-1.36c1.04-.33,2.05-.75,3.02-1.25l.97,.97c1.68,1.68,4.42,1.68,6.11,0l2.62-2.62c1.68-1.68,1.68-4.42,0-6.11l-.97-.97c.5-.97,.92-1.98,1.25-3.02h1.37c2.38,0,4.32-1.94,4.32-4.32v-3.7c0-2.38-1.94-4.32-4.32-4.32Zm1.32,8.02c0,.73-.59,1.32-1.32,1.32h-2.49c-.68,0-1.28,.46-1.45,1.12-.4,1.54-1.01,3.02-1.83,4.4-.35,.59-.25,1.34,.23,1.82l1.76,1.76c.51,.51,.51,1.35,0,1.87l-2.62,2.62c-.52,.51-1.35,.52-1.87,0l-1.76-1.76c-.48-.48-1.23-.58-1.82-.23-1.38,.81-2.86,1.43-4.4,1.83-.66,.17-1.12,.77-1.12,1.45v2.49c0,.73-.59,1.32-1.32,1.32h-3.7c-.73,0-1.32-.59-1.32-1.32v-2.49c0-.68-.46-1.28-1.12-1.45-1.54-.4-3.02-1.01-4.4-1.83-.24-.14-.5-.21-.76-.21-.39,0-.77,.15-1.06,.44l-1.76,1.76c-.52,.51-1.35,.51-1.87,0l-2.62-2.62c-.51-.51-.51-1.35,0-1.87l1.76-1.76c.48-.48,.58-1.23,.23-1.82-.81-1.38-1.43-2.86-1.82-4.4-.17-.66-.77-1.12-1.45-1.12h-2.49c-.73,0-1.32-.59-1.32-1.32v-3.7c0-.73,.59-1.32,1.32-1.32h2.49c.68,0,1.28-.46,1.45-1.13,.4-1.54,1.01-3.02,1.82-4.4,.35-.59,.25-1.34-.23-1.82l-1.76-1.76c-.51-.51-.51-1.35,0-1.87l2.62-2.62c.52-.51,1.35-.51,1.87,0l1.76,1.76c.48,.48,1.23,.58,1.82,.23,1.38-.81,2.86-1.43,4.4-1.83,.66-.17,1.12-.77,1.12-1.45v-2.49c0-.73,.59-1.32,1.32-1.32h3.7c.73,0,1.32,.59,1.32,1.32v2.49c0,.68,.46,1.28,1.12,1.45,1.54,.4,3.02,1.01,4.4,1.83,.59,.35,1.34,.25,1.82-.23l1.76-1.76c.52-.51,1.35-.51,1.87,0l2.62,2.62c.51,.51,.51,1.35,0,1.87l-1.76,1.76c-.48,.48-.58,1.23-.23,1.82,.81,1.38,1.43,2.86,1.83,4.4,.17,.66,.77,1.12,1.45,1.12h2.49c.73,0,1.32,.59,1.32,1.32v3.7Z"/><path d="M32,20.86c-6.14,0-11.14,5-11.14,11.14s5,11.14,11.14,11.14,11.14-5,11.14-11.14-5-11.14-11.14-11.14Zm0,19.28c-4.49,0-8.14-3.65-8.14-8.14s3.65-8.14,8.14-8.14,8.14,3.65,8.14,8.14-3.65,8.14-8.14,8.14Z"/></svg>